<svg xmlns="http://www.w3.org/2000/svg" width="1360" height="161" viewBox="0 0 1360 161" fill="none">
  <path d="M0 136.823L20.7022 141.893C41.2533 146.963 82.6578 157.103 123.911 159.92C165.164 162.737 206.569 158.23 247.52 148.09C288.622 137.95 329.422 122.177 370.524 118.797C411.476 115.417 452.88 124.43 494.133 131.19C535.387 137.95 576.791 142.457 618.044 143.583C659.298 144.71 700.702 142.457 741.956 136.823C783.209 131.19 824.613 122.177 865.867 126.683C907.12 131.19 948.524 149.217 989.476 153.16C1030.58 157.103 1071.38 146.963 1112.48 140.203C1153.43 133.443 1194.84 130.063 1236.09 126.683C1277.34 123.303 1318.75 119.923 1339.3 118.233L1360 116.543V0.496582L1339.3 6.69325C1318.75 12.8899 1277.34 25.2832 1236.09 23.5932C1194.84 21.9032 1153.43 6.12992 1112.48 7.81992C1071.38 9.50992 1030.58 28.6632 989.476 30.9166C948.524 33.1699 907.12 18.5232 865.867 18.5232C824.613 18.5232 783.209 33.1699 741.956 41.6199C700.702 50.0699 659.298 52.3232 618.044 44.4366C576.791 36.5499 535.387 18.5232 494.133 19.0866C452.88 19.6499 411.476 38.8032 370.524 47.8166C329.422 56.8299 288.622 55.7032 247.52 57.9566C206.569 60.2099 165.164 65.8432 123.911 70.3499C82.6578 74.8566 41.2533 78.2366 20.7022 79.9266L0 81.6166V136.823Z" fill="#F6F8F9" fill-opacity="0.25"/>
</svg>