<svg xmlns="http://www.w3.org/2000/svg" width="1360" height="261" viewBox="0 0 1360 261" fill="none">
  <path d="M0 261.01L20.7022 257.92C41.2533 254.83 82.6578 248.65 123.911 240.41C165.164 232.17 206.569 221.87 247.52 217.75C288.622 213.63 329.422 215.69 370.524 199.21C411.476 182.73 452.88 147.71 494.133 146.68C535.387 145.65 576.791 178.61 618.044 193.03C659.298 207.45 700.702 203.33 741.956 187.88C783.209 172.43 824.613 145.65 865.867 145.65C907.12 145.65 948.524 172.43 989.476 168.31C1030.58 164.19 1071.38 129.17 1112.48 126.08C1153.43 122.99 1194.84 151.83 1236.09 154.92C1277.34 158.01 1318.75 135.35 1339.3 124.02L1360 112.69V24.1101L1339.3 26.1701C1318.75 28.2301 1277.34 32.3501 1236.09 26.1701C1194.84 19.9901 1153.43 3.5101 1112.48 10.7201C1071.38 17.9301 1030.58 48.8301 989.476 52.9501C948.524 57.0701 907.12 34.4101 865.867 37.5001C824.613 40.5901 783.209 69.4301 741.956 70.4601C700.702 71.4901 659.298 44.7101 618.044 26.1701C576.791 7.6301 535.387 -2.6699 494.133 1.4501C452.88 5.5701 411.476 24.1101 370.524 38.5301C329.422 52.9501 288.622 63.2501 247.52 67.3701C206.569 71.4901 165.164 69.4301 123.911 71.4901C82.6578 73.5501 41.2533 79.7301 20.7022 82.8201L0 85.9101V261.01Z" fill="#FAFBFC" fill-opacity="0.25"/>
</svg>