<svg xmlns="http://www.w3.org/2000/svg" width="1360" height="77" viewBox="0 0 1360 77" fill="none">
  <path d="M0 78.0301H20.7022C41.2533 78.0301 82.6578 78.0301 123.911 78.0301C165.164 78.0301 206.569 78.0301 247.52 78.0301C288.622 78.0301 329.422 78.0301 370.524 78.0301C411.476 78.0301 452.88 78.0301 494.133 78.0301C535.387 78.0301 576.791 78.0301 618.044 78.0301C659.298 78.0301 700.702 78.0301 741.956 78.0301C783.209 78.0301 824.613 78.0301 865.867 78.0301C907.12 78.0301 948.524 78.0301 989.476 78.0301C1030.58 78.0301 1071.38 78.0301 1112.48 78.0301C1153.43 78.0301 1194.84 78.0301 1236.09 78.0301C1277.34 78.0301 1318.75 78.0301 1339.3 78.0301H1360V14.1701L1339.3 11.0801C1318.75 7.99013 1277.34 1.81013 1236.09 5.93013C1194.84 10.0501 1153.43 24.4701 1112.48 32.7101C1071.38 40.9501 1030.58 43.0101 989.476 35.8001C948.524 28.5901 907.12 12.1101 865.867 4.90013C824.613 -2.30987 783.209 -0.24987 741.956 7.99013C700.702 16.2301 659.298 30.6501 618.044 36.8301C576.791 43.0101 535.387 40.9501 494.133 31.6801C452.88 22.4101 411.476 5.93013 370.524 5.93013C329.422 5.93013 288.622 22.4101 247.52 29.6201C206.569 36.8301 165.164 34.7701 123.911 33.7401C82.6578 32.7101 41.2533 32.7101 20.7022 32.7101H0V78.0301Z" fill="#E5EAEF" fill-opacity="0.25"/>
</svg>