<svg width="60" height="60" viewBox="0 0 60 60" fill="none" xmlns="http://www.w3.org/2000/svg">
<g id="like-tag_svgrepo.com">
<path id="Vector" d="M45 47.15H43.1C41.1 47.15 39.2 47.925 37.8 49.325L33.525 53.55C31.575 55.475 28.4 55.475 26.45 53.55L22.175 49.325C20.775 47.925 18.85 47.15 16.875 47.15H15C10.85 47.15 7.5 43.825 7.5 39.725V12.4499C7.5 8.34995 10.85 5.02502 15 5.02502H45C49.15 5.02502 52.5 8.34995 52.5 12.4499V39.725C52.5 43.8 49.15 47.15 45 47.15Z" fill="#83A2FF" stroke="#060909" stroke-width="3.75" stroke-miterlimit="10" stroke-linecap="round" stroke-linejoin="round"/>
<path id="Vector_2" d="M17.5 34.5V21.7749C17.5 19.9499 18.275 19.2999 20.1 19.2999H21.4C23.225 19.2999 24 19.9499 24 21.7749V34.5C24 36.325 23.225 36.975 21.4 36.975H20.1C18.275 36.975 17.5 36.325 17.5 34.5Z" stroke="#060909" stroke-width="3.75" stroke-linecap="round" stroke-linejoin="round"/>
<path id="Vector_3" d="M24.125 34.5L28.15 37.625C28.675 38.15 29.85 38.3997 30.625 38.3997H35.575C37.125 38.3997 38.825 37.225 39.225 35.675L42.35 26.1997C43 24.3748 41.825 22.8249 39.875 22.8249H34.675C33.9 22.8249 33.25 22.1749 33.375 21.2749L34.025 17.1248C34.275 15.9498 33.5 14.6498 32.325 14.2748C31.275 13.8748 29.975 14.3997 29.475 15.1747L24.1501 23.0999" stroke="#060909" stroke-width="3.75" stroke-miterlimit="10"/>
</g>
</svg>
